<mxfile host="app.diagrams.net" modified="2024-04-21T21:23:39.393Z" agent="Mozilla/5.0 (Windows NT 10.0; Win64; x64) AppleWebKit/537.36 (KHTML, like Gecko) Chrome/121.0.0.0 Safari/537.36 OPR/107.0.0.0" etag="59QPuge-1lzzaRGCNS-J" version="24.2.7" type="device">
  <diagram name="Page-1" id="-t1ldZqvYngovwxqt92G">
    <mxGraphModel dx="980" dy="534" grid="1" gridSize="10" guides="1" tooltips="1" connect="1" arrows="1" fold="1" page="1" pageScale="1" pageWidth="850" pageHeight="1100" math="0" shadow="0">
      <root>
        <mxCell id="0" />
        <mxCell id="1" parent="0" />
        <mxCell id="TgMPiGcopMQQFyazaGH5-1" value="" style="rounded=0;whiteSpace=wrap;html=1;fillColor=#d5e8d4;strokeColor=#82b366;" parent="1" vertex="1">
          <mxGeometry x="120" y="210" width="600" height="390" as="geometry" />
        </mxCell>
        <mxCell id="TgMPiGcopMQQFyazaGH5-5" value="" style="endArrow=none;html=1;rounded=0;textShadow=0;" parent="1" edge="1">
          <mxGeometry width="50" height="50" relative="1" as="geometry">
            <mxPoint x="720" y="640" as="sourcePoint" />
            <mxPoint x="120" y="640" as="targetPoint" />
          </mxGeometry>
        </mxCell>
        <mxCell id="TgMPiGcopMQQFyazaGH5-6" value="1000 x 541" style="text;html=1;align=center;verticalAlign=middle;whiteSpace=wrap;rounded=0;" parent="1" vertex="1">
          <mxGeometry x="380" y="640" width="70" height="30" as="geometry" />
        </mxCell>
        <mxCell id="TgMPiGcopMQQFyazaGH5-7" style="edgeStyle=orthogonalEdgeStyle;rounded=0;orthogonalLoop=1;jettySize=auto;html=1;exitX=0.5;exitY=1;exitDx=0;exitDy=0;" parent="1" source="TgMPiGcopMQQFyazaGH5-1" target="TgMPiGcopMQQFyazaGH5-1" edge="1">
          <mxGeometry relative="1" as="geometry" />
        </mxCell>
        <mxCell id="TgMPiGcopMQQFyazaGH5-10" value="" style="rounded=0;whiteSpace=wrap;html=1;fillColor=#60a917;strokeColor=#2D7600;fontColor=#ffffff;" parent="1" vertex="1">
          <mxGeometry x="120" y="210" width="600" height="60" as="geometry" />
        </mxCell>
        <mxCell id="TgMPiGcopMQQFyazaGH5-12" value="" style="rounded=0;whiteSpace=wrap;html=1;fillColor=#d5e8d4;strokeColor=#82b366;" parent="1" vertex="1">
          <mxGeometry x="150" y="320" width="260" height="110" as="geometry" />
        </mxCell>
        <mxCell id="TgMPiGcopMQQFyazaGH5-13" value="" style="ellipse;whiteSpace=wrap;html=1;aspect=fixed;fillColor=#d5e8d4;strokeColor=#82b366;" parent="1" vertex="1">
          <mxGeometry x="150" y="530" width="40" height="40" as="geometry" />
        </mxCell>
        <mxCell id="TgMPiGcopMQQFyazaGH5-14" value="" style="ellipse;whiteSpace=wrap;html=1;aspect=fixed;fillColor=#d5e8d4;strokeColor=#82b366;" parent="1" vertex="1">
          <mxGeometry x="270" y="530" width="40" height="40" as="geometry" />
        </mxCell>
        <mxCell id="TgMPiGcopMQQFyazaGH5-15" value="" style="ellipse;whiteSpace=wrap;html=1;aspect=fixed;fillColor=#d5e8d4;strokeColor=#82b366;" parent="1" vertex="1">
          <mxGeometry x="210" y="530" width="40" height="40" as="geometry" />
        </mxCell>
        <mxCell id="TgMPiGcopMQQFyazaGH5-16" value="" style="rounded=1;whiteSpace=wrap;html=1;fillColor=#60a917;fontColor=#ffffff;strokeColor=#2D7600;" parent="1" vertex="1">
          <mxGeometry x="150" y="450" width="115" height="50" as="geometry" />
        </mxCell>
        <mxCell id="TgMPiGcopMQQFyazaGH5-17" value="" style="rounded=1;whiteSpace=wrap;html=1;fillColor=#60a917;strokeColor=#2D7600;fontColor=#ffffff;" parent="1" vertex="1">
          <mxGeometry x="290" y="450" width="120" height="50" as="geometry" />
        </mxCell>
        <mxCell id="TgMPiGcopMQQFyazaGH5-19" value="" style="ellipse;whiteSpace=wrap;html=1;rotation=-90;" parent="1" vertex="1">
          <mxGeometry x="490" y="340" width="220" height="147.5" as="geometry" />
        </mxCell>
        <mxCell id="TgMPiGcopMQQFyazaGH5-21" value="DAVI ANDRÉ." style="text;html=1;align=center;verticalAlign=middle;whiteSpace=wrap;rounded=0;" parent="1" vertex="1">
          <mxGeometry x="150" y="225" width="110" height="30" as="geometry" />
        </mxCell>
        <mxCell id="TgMPiGcopMQQFyazaGH5-22" value="HOME" style="text;html=1;align=center;verticalAlign=middle;whiteSpace=wrap;rounded=0;" parent="1" vertex="1">
          <mxGeometry x="560" y="225" width="60" height="30" as="geometry" />
        </mxCell>
        <mxCell id="TgMPiGcopMQQFyazaGH5-23" value="CONTATO" style="text;html=1;align=center;verticalAlign=middle;whiteSpace=wrap;rounded=0;" parent="1" vertex="1">
          <mxGeometry x="640" y="225" width="60" height="30" as="geometry" />
        </mxCell>
        <mxCell id="TgMPiGcopMQQFyazaGH5-25" value="FOTO" style="text;html=1;align=center;verticalAlign=middle;whiteSpace=wrap;rounded=0;" parent="1" vertex="1">
          <mxGeometry x="570" y="390" width="60" height="30" as="geometry" />
        </mxCell>
        <mxCell id="TgMPiGcopMQQFyazaGH5-26" value="SOBRE MIM, EXPERIÊNCIAS, TECNOLOGIAS QUE DOMINO&amp;nbsp;&amp;nbsp;" style="text;html=1;align=center;verticalAlign=middle;whiteSpace=wrap;rounded=0;" parent="1" vertex="1">
          <mxGeometry x="160" y="370" width="220" height="45" as="geometry" />
        </mxCell>
        <mxCell id="TgMPiGcopMQQFyazaGH5-27" value="Título e oque eu faço" style="text;html=1;align=center;verticalAlign=middle;whiteSpace=wrap;rounded=0;" parent="1" vertex="1">
          <mxGeometry x="210" y="330" width="140" height="20" as="geometry" />
        </mxCell>
        <mxCell id="TgMPiGcopMQQFyazaGH5-32" value="ME CONTRATE" style="text;html=1;align=center;verticalAlign=middle;whiteSpace=wrap;rounded=0;" parent="1" vertex="1">
          <mxGeometry x="160" y="460" width="90" height="30" as="geometry" />
        </mxCell>
        <mxCell id="TgMPiGcopMQQFyazaGH5-33" value="VAMOS CONVERSAR" style="text;html=1;align=center;verticalAlign=middle;whiteSpace=wrap;rounded=0;" parent="1" vertex="1">
          <mxGeometry x="295" y="457.5" width="110" height="30" as="geometry" />
        </mxCell>
        <mxCell id="TgMPiGcopMQQFyazaGH5-36" value="ÍCONE" style="text;html=1;align=center;verticalAlign=middle;whiteSpace=wrap;rounded=0;" parent="1" vertex="1">
          <mxGeometry x="157.5" y="545" width="25" height="10" as="geometry" />
        </mxCell>
        <mxCell id="TgMPiGcopMQQFyazaGH5-37" value="ÍCONE" style="text;html=1;align=center;verticalAlign=middle;whiteSpace=wrap;rounded=0;" parent="1" vertex="1">
          <mxGeometry x="280" y="545" width="25" height="10" as="geometry" />
        </mxCell>
        <mxCell id="TgMPiGcopMQQFyazaGH5-38" value="ÍCONE" style="text;html=1;align=center;verticalAlign=middle;whiteSpace=wrap;rounded=0;" parent="1" vertex="1">
          <mxGeometry x="217.5" y="545" width="25" height="10" as="geometry" />
        </mxCell>
      </root>
    </mxGraphModel>
  </diagram>
</mxfile>
